<svg width="21" height="21" viewBox="0 0 21 21" fill="none" xmlns="http://www.w3.org/2000/svg">
<path d="M9.5 15.5H11.5V11.5H15.5V9.5H11.5V5.5H9.5V9.5H5.5V11.5H9.5V15.5ZM10.5 20.5C9.11667 20.5 7.81667 20.2375 6.6 19.7125C5.38333 19.1875 4.325 18.475 3.425 17.575C2.525 16.675 1.8125 15.6167 1.2875 14.4C0.7625 13.1833 0.5 11.8833 0.5 10.5C0.5 9.11667 0.7625 7.81667 1.2875 6.6C1.8125 5.38333 2.525 4.325 3.425 3.425C4.325 2.525 5.38333 1.8125 6.6 1.2875C7.81667 0.7625 9.11667 0.5 10.5 0.5C11.8833 0.5 13.1833 0.7625 14.4 1.2875C15.6167 1.8125 16.675 2.525 17.575 3.425C18.475 4.325 19.1875 5.38333 19.7125 6.6C20.2375 7.81667 20.5 9.11667 20.5 10.5C20.5 11.8833 20.2375 13.1833 19.7125 14.4C19.1875 15.6167 18.475 16.675 17.575 17.575C16.675 18.475 15.6167 19.1875 14.4 19.7125C13.1833 20.2375 11.8833 20.5 10.5 20.5ZM10.5 18.5C12.7333 18.5 14.625 17.725 16.175 16.175C17.725 14.625 18.5 12.7333 18.5 10.5C18.5 8.26667 17.725 6.375 16.175 4.825C14.625 3.275 12.7333 2.5 10.5 2.5C8.26667 2.5 6.375 3.275 4.825 4.825C3.275 6.375 2.5 8.26667 2.5 10.5C2.5 12.7333 3.275 14.625 4.825 16.175C6.375 17.725 8.26667 18.5 10.5 18.5Z" fill="#649BB1"/>
</svg>
