<svg width="20" height="15" viewBox="0 0 20 15" fill="none" xmlns="http://www.w3.org/2000/svg">
<path d="M16.0634 8.52676H1.46635C1.17502 8.52676 0.93279 8.43019 0.739655 8.23706C0.546519 8.04392 0.449951 7.80169 0.449951 7.51036C0.449951 7.21883 0.546519 6.97649 0.739655 6.78336C0.93279 6.59022 1.17502 6.49365 1.46635 6.49365H16.0634L11.8957 2.32619C11.6924 2.12289 11.5958 1.88564 11.606 1.61444C11.6161 1.34344 11.7195 1.10629 11.9161 0.902985C12.1194 0.699684 12.3583 0.596306 12.6327 0.59285C12.9072 0.589597 13.1461 0.68962 13.3494 0.892921L19.2554 6.7986C19.3637 6.90717 19.44 7.01898 19.4841 7.13405C19.528 7.24932 19.55 7.37476 19.55 7.51036C19.55 7.64576 19.528 7.77109 19.4841 7.88636C19.44 8.00164 19.3637 8.11345 19.2554 8.22181L13.3698 14.1074C13.1665 14.3107 12.9276 14.4106 12.6532 14.4071C12.3787 14.4039 12.1398 14.3006 11.9365 14.0973C11.74 13.894 11.6399 13.6534 11.6365 13.3755C11.6332 13.0976 11.7332 12.857 11.9365 12.6537L16.0634 8.52676Z" fill="white"/>
</svg>
